<?xml version="1.0" encoding="UTF-8"?>
<svg id="Layer_2" data-name="Layer 2" xmlns="http://www.w3.org/2000/svg" viewBox="0 0 1249.29484 200.00998">
  <defs>
    <style>
      .cls-1 {
        fill: #000;
      }

      .cls-1, .cls-2 {
        stroke-width: 0px;
      }

      .cls-2 {
        fill: #fe6500;
      }
    </style>
  </defs>
  <g id="Layer_1-2" data-name="Layer 1">
    <g>
      <path class="cls-1" d="M778.3549,51.59998c0-21.37,14.38-35.93999,37.46997-35.93999,18.96997,0,30.95001,9.58,33.83002,24.73l-13.51001,2.01c-2.01001-10.16-9.20001-16.19-20.78998-16.19-14.65997,0-23.38,9.97-23.38,25.3s8.81,25.39,23.66998,25.39c11.02002,0,18.40002-5.64999,20.89001-15.43001l13.13,2.59c-4.02002,14.28-15.62,23.48-34.31,23.48-23.77002,0-36.98999-14.86-36.98999-35.94"/>
      <path class="cls-1" d="M877.14494,78.81998c10.15997,0,17.15002-5.17,17.15002-13.32001v-2.59l-16.47998,1.53c-8.53003.96001-11.59003,3.16-11.59003,7.57001s4.02002,6.8,10.91998,6.8M853.57493,72.67998c0-4.5,1.91998-8.34,5.65997-10.73,3.45001-2.2,8.15002-3.64,17.25-4.5l17.63-1.43v-1.06c0-7-4.40997-10.35-12.54999-10.35s-12.94,3.16-13.70001,8.81h-12.75c1.15002-10.45,11.21002-17.15,26.34998-17.15,16.96002,0,24.91998,6.52,24.91998,20.32v13.61c0,7.19.38,11.60001,1.25,15.42999h-12.27002c-.47998-2.49001-.66998-5.64999-.77002-8.72-3.35999,6.42-10.83002,10.16-21.56,10.16-11.88,0-19.45001-5.46001-19.45001-14.38"/>
      <path class="cls-1" d="M946.80491,36.45998c1.44,0,2.40002,0,3.45001.19v11.4c-1.25-.19-2.40002-.29-3.83002-.29-5.56,0-9.20001,1.53-11.78998,4.12-3.73999,3.74-4.70001,9.2-4.70001,14.95v18.78h-12.16998v-47.92h11.21002v12.65c2.48999-8.34,8.90997-13.9,17.83002-13.9"/>
      <path class="cls-1" d="M993.56498,56.96999v-.48c0-7.95-6.22998-12.36-15.14001-12.36-9.39001,0-15.32996,4.89-15.81006,12.84h30.95007ZM950.7349,62.13998c0-16.39,10.92004-25.88,27.79004-25.88s27.31006,8.72,27.31006,24.05v4.41h-43.21997c.47998,8.14999,6.80005,13.22,16.87,13.22,7.46997,0,13.03003-2.88,16-8.34l9.57996,4.41c-4.89001,8.43001-13.69995,13.03999-25.96997,13.03999-17.54004,0-28.37-9.2-28.37-24.92"/>
      <path class="cls-1" d="M1053.25492,56.96999v-.48c0-7.95-6.22998-12.36-15.14001-12.36-9.39001,0-15.32996,4.89-15.81006,12.84h30.95007ZM1010.42497,62.13998c0-16.39,10.92004-25.88,27.79004-25.88s27.31006,8.72,27.31006,24.05v4.41h-43.21997c.47998,8.14999,6.80005,13.22,16.87,13.22,7.46997,0,13.03003-2.88,16-8.34l9.57996,4.41c-4.89001,8.43001-13.69995,13.03999-25.96997,13.03999-17.54004,0-28.37-9.2-28.37-24.92"/>
      <path class="cls-1" d="M1102.88493,36.45998c1.43994,0,2.40002,0,3.44995.19v11.4c-1.25-.19-2.40002-.29-3.82996-.29-5.56006,0-9.19995,1.53-11.79004,4.12-3.73999,3.74-4.69995,9.2-4.69995,14.95v18.78h-12.17004v-47.92h11.20996v12.65c2.48999-8.34,8.91003-13.9,17.82996-13.9"/>
    </g>
    <g>
      <path class="cls-1" d="M816.11491,144.73999c8.62,0,13.89001-4.41,13.89001-11.69s-5.17999-11.59-13.79999-11.59h-18.78003v23.29001h18.69v-.01001ZM784.2949,179.62999v-68.03999h34.5c15.23999,0,24.91998,8.24001,24.91998,21.17999s-9.96997,21.75999-25.58002,21.75999h-20.70001v25.11h-13.13l-.00995-.00999Z"/>
      <path class="cls-1" d="M868.42491,172.81998c10.15997,0,17.15002-5.17,17.15002-13.32001v-2.59l-16.47998,1.53c-8.53003.96001-11.59003,3.16-11.59003,7.57001s4.02002,6.8,10.91998,6.8M844.8549,166.68999c0-4.5,1.91998-8.34,5.65997-10.73,3.45001-2.2,8.14001-3.64,17.25-4.5l17.63-1.42999v-1.06c0-7-4.40997-10.35001-12.56-10.35001s-12.94,3.16-13.70001,8.81h-12.75c1.15002-10.44,11.21002-17.14999,26.34998-17.14999,16.96002,0,24.91998,6.52,24.91998,20.32001v13.61c0,7.19.38,11.60001,1.25,15.43001h-12.27002c-.47998-2.49001-.66998-5.64999-.77002-8.72-3.35999,6.42-10.83002,10.16-21.56,10.16-11.88,0-19.45001-5.46001-19.45001-14.38"/>
      <path class="cls-1" d="M900.81492,131.70999h11.12v-11.98l12.27002-4.78999v16.77h16.39001v8.62h-16.39001v21.08c0,6.23,3.07001,9.00999,9.20001,9.00999,2.88,0,5.17999-.38,7.19-.86v9.77c-2.67999.86-6.13,1.35001-10.06,1.35001-13.98999,0-18.59003-6.89999-18.59003-17.25v-23.09h-11.12v-8.62l-.01001-.01003Z"/>
      <path class="cls-1" d="M948.33494,110.14998h12.16998v31.34c3.73999-7.28,10.72998-11.21001,19.93005-11.21001,13.60999,0,20.89001,8.05,20.89001,23.29001v26.07001h-12.17004v-24.82001c0-9.87-4.59998-15.03999-13.42004-15.03999-9.39001,0-15.23999,6.13-15.23999,16.28999v23.58h-12.16998v-69.48l.01001-.02Z"/>
      <path class="cls-1" d="M1004.4849,131.70999h12.17004l10.06006,32.58c.38,1.44.77002,3.16,1.05005,4.78999h.18994c.18994-1.63.77002-3.35001,1.15002-4.78999l11.12-32.58h12.06995l11.12,32.58c.47998,1.44.95996,3.16,1.23999,4.78999h.18994c.18994-1.63.57996-3.35001.95996-4.78999l10.06006-32.58h12.27002l-16.39001,47.92h-13.03003l-11.12-31.72c-.57996-1.53-1.06006-3.83-1.15002-4.98h-.29004c-.09998,1.14999-.67004,3.45-1.15002,4.98l-11.10999,31.72h-13.13l-16.29004-47.92h.01013Z"/>
      <path class="cls-1" d="M1112.18498,172.81998c10.16003,0,17.16003-5.17,17.16003-13.32001v-2.59l-16.48999,1.53c-8.53003.96001-11.58997,3.16-11.58997,7.57001s4.02002,6.8,10.92004,6.8M1088.61491,166.68999c0-4.5,1.92004-8.34,5.66003-10.73,3.44995-2.2,8.15002-3.64,17.25-4.5l17.63-1.42999v-1.06c0-7-4.41003-10.35001-12.55005-10.35001s-12.93994,3.16-13.69995,8.81h-12.75c1.15002-10.44,11.20996-17.14999,26.34998-17.14999,16.95996,0,24.92004,6.52,24.92004,20.32001v13.61c0,7.19.38,11.60001,1.25,15.43001h-12.27002c-.47998-2.49001-.67004-5.64999-.77002-8.72-3.35999,6.42-10.82996,10.16-21.56006,10.16-11.88,0-19.44995-5.46001-19.44995-14.38"/>
      <path class="cls-1" d="M1147.15495,198.78998v-9.57999c1.92004.29001,3.55005.38,5.18005.38,6.70996,0,11.12-2.78,13.42004-8.05l.77002-2.11-23.29004-47.72h13.69995l14.18005,32.3c.77002,2.00999,1.15002,3.45,1.53003,4.98h.18994c.38-1.34.77002-2.78,1.53003-4.89l13.31995-32.39h12.93994l-22.52002,50.60001c-5.45996,12.35999-12.75,17.06-24.43994,17.06-1.81995,0-4.12-.19-6.52002-.57001"/>
      <path class="cls-1" d="M1198.22489,168.21999l8.33997-4.69c3.44995,5.75,9.96997,8.91,19.83997,8.91,7.76001,0,11.58997-2.3,11.58997-6.23,0-3.35001-2.01001-4.60001-7.56995-5.37l-14.18005-1.63c-10.34998-1.34-15.70996-5.85001-15.70996-13.89,0-9.2,8.53003-15.05,23.38-15.05,12.35999,0,21.37,3.92999,25.19995,10.74001l-7.85999,4.98c-3.54004-4.7-9.09998-7.28-18.20996-7.28-7.47998,0-11.20996,2.00999-11.20996,5.94,0,3.16,2.40002,4.7,7.28003,5.27l14.84998,1.73c10.82996,1.44,15.32996,5.94,15.32996,13.7,0,9.49001-7.85999,15.72-23.56995,15.72-13.69995,0-23-4.5-27.5-12.84"/>
    </g>
    <rect class="cls-1" x="691.93492" y=".00999" width="1.09003" height="199.99999"/>
    <path class="cls-2" d="M186.13493.00999C123.27493,109.15999,53.34493,122.53998,130.05493.00999H30.09493c-83.63,150.21001,24.84,196.52999,108.80999,85.76l1.75,1.35001-77.22,112.88h107.26001L207.25492,0h-21.12v.00999Z"/>
    <g>
      <path class="cls-1" d="M254.54493,62.29999l-27.23999-43.81h18.95001l15.14001,26.09c.95001,1.81,1.51999,3.14,1.81,4.38h.19c.29001-1.24.85999-2.57,1.91-4.38l15.42999-26.09h18.48001l-27.32999,43.81v23.81h-17.32999v-23.81h-.01007Z"/>
      <path class="cls-1" d="M327.30494,57.05998v-.29c0-6.48-4.85999-10.38-12.38-10.38s-12.57001,4-13.04999,10.67h25.42999ZM286.25492,62.67998c0-15.9,11.23999-25.62,28.85999-25.62s28.38,9.33,28.38,25.05v3.81h-41.51999c.57001,6.48,6,10.48,14.38,10.48,6.10001,0,11.04999-2.48,13.81-6.95l12.29001,5.62c-4.95001,7.91-14.29001,12.48-26.57001,12.48-18.38,0-29.62-9.24001-29.62-24.86"/>
      <path class="cls-1" d="M375.86494,77.62999c8.10001,0,13.62-4.19,13.62-10.56999v-2.86l-12.76001,1.33c-6.95001.86-9.70999,2.75999-9.70999,6.38s3.32999,5.72,8.85999,5.72M350.15492,73.05998c0-4.48,1.81-8.10001,5.32999-10.48,3.32999-2.28,8.10001-3.71,16.48001-4.57l17.23999-1.52v-1.43c0-5.33-3.51999-7.91-9.81-7.91s-10.29001,2.57-10.85999,7.24h-16.95001c1.23999-10.76,11.89999-17.33,27.81-17.33,18.19,0,26.38,6.57,26.38,20.48v14.66c0,6,.38,10.56999,1.14001,13.91h-16.29001c-.48001-2.28-.66-5.24001-.66-8.10001-3.04999,6-10.48001,9.53-20.38,9.53-12,0-19.42999-5.52-19.42999-14.48"/>
      <path class="cls-1" d="M448.91496,37.24998c1.33002,0,2.19,0,3.14001.19v14.95c-1.62-.19-3.04999-.38-4.85999-.38-4.85999,0-8.47,1.24-10.85999,3.52-3.23999,2.95-4.28,7.62-4.28,12.75999v17.81h-16.48001v-47.62h14.95001v13.05c2.57001-8.86,8.95001-14.28,18.38-14.28"/>
    </g>
    <path class="cls-1" d="M490.38493,18.48998v40c0,9.34,5.71002,15.71,16,15.71s15.90002-6.38,15.90002-15.71V18.48998h17.33002v41.24c0,17.05-12.09998,28.29001-33.23999,28.29001s-33.33002-11.24001-33.33002-28.38V18.49999h17.33002l.00995-.01001Z"/>
    <path class="cls-1" d="M577.44493,76.48999c-7.81,0-12.95001-5.24001-12.95001-13.33v-1.91c0-8.28,5.14001-13.14,13.04999-13.14s12.66998,5.14,12.66998,14-4.85999,14.38-12.76001,14.38M583.63493,37.05998c-8.28003,0-15.33002,3.24-19.33002,9.33v-7.91h-15.90002v67.26001l16.47998-6.07001v-20.24001c3.90002,4.95,10.09003,8.10001,18.09003,8.10001,14.47998,0,24.28998-10,24.28998-25.43001s-9.42999-25.05-23.62-25.05"/>
    <g>
      <path class="cls-1" d="M247.65492,111.99998v40c0,9.34,5.70999,15.71001,16,15.71001s15.89999-6.38,15.89999-15.71001v-40h17.32999v41.24001c0,17.05-12.09,28.29001-33.23999,28.29001s-33.32999-11.24001-33.32999-28.38v-41.14h17.32999l.01001-.01001Z"/>
      <path class="cls-1" d="M306.21491,131.99998h16v9.91c3.81-7.42999,10.48001-11.33,19.70999-11.33,13.23999,0,20.28,7.71001,20.28,22.48v26.56999h-16.48001v-24.29001c0-8.47-3.51999-12.57001-10.85999-12.57001-7.72,0-12.19,4.95-12.19,13.62v23.24001h-16.48001v-47.62l.02002-.00998Z"/>
      <path class="cls-1" d="M372.27494,131.99998h16.48001v47.62h-16.48001v-47.62ZM371.79493,110.85999h17.32999v14.19h-17.32999v-14.19Z"/>
      <path class="cls-1" d="M395.08494,131.99998h10.67001v-11.33l16.48001-6.10001v17.42999h15.62v10.75999h-15.62v16.56999c0,5.62,2.95001,8.28999,8.95001,8.28999,2.76001,0,4.85999-.38,6.57001-.75999v12.38c-3.23999.95-6.66,1.42999-11.04999,1.42999-14.28,0-20.95001-6-20.95001-17.81v-20.09h-10.67001v-10.75999l-.00003-.00998Z"/>
      <path class="cls-1" d="M483.55491,150.57999v-.28999c0-6.48-4.85999-10.38-12.38-10.38s-12.57001,4-13.04999,10.67h25.42999ZM442.50492,156.18999c0-15.89999,11.23999-25.62,28.85999-25.62s28.38,9.33,28.38,25.05v3.81h-41.52002c.57001,6.48,6,10.48,14.38,10.48,6.09003,0,11.03998-2.47,13.81-6.95l12.28998,5.62c-4.95001,7.91-14.28003,12.48-26.57001,12.48-18.38,0-29.62-9.24001-29.62-24.86"/>
      <path class="cls-1" d="M548.68492,157.33998c0,7.62-5.14001,12.67-12.76001,12.67s-12.85999-5.52-12.85999-14.38,4.66998-14.09,12.66998-14.09,12.95001,4.95,12.95001,12.95v2.86-.00999ZM548.39494,117.33998v21.33c-3.71997-5.33-9.81-8.10001-18-8.10001-14.57001,0-24.38,10.10001-24.38,25.24001s9.62,25.24001,23.62,25.24001c8.95001,0,15.90002-3.81,19.42999-10.09v8.67h15.81v-68.34l-16.47998,6.07001v-.02002Z"/>
    </g>
  </g>
</svg>